{"glyphs":{"0":{"ha":1169,"x_min":-38,"x_max":1214,"o":"m 667 1481 q 1073 1256 917 1481 q 1184 1002 1150 1141 q 1194 714 1214 870 q 998 229 1165 451 q 506 -43 799 -43 q 96 177 250 -43 q -6 425 21 286 q -21 714 -38 558 q 169 1209 9 985 q 667 1481 372 1481 m 647 1083 q 417 912 515 1083 q 323 650 338 776 q 329 526 316 579 q 406 397 344 444 q 566 342 468 342 q 784 453 701 342 q 861 667 848 543 q 818 947 872 808 q 647 1083 756 1083 z "},"1":{"ha":739,"x_min":75,"x_max":675,"o":"m 675 1400 q 647 83 592 658 l 269 -2 l 263 976 l 92 957 l 75 1316 l 675 1400 z "},"2":{"ha":1139,"x_min":-17,"x_max":1156,"o":"m 68 872 q 370 1402 90 1293 q 534 1429 444 1429 q 872 1331 709 1429 q 1120 1024 1083 1205 q 1011 699 1156 857 q 660 483 902 579 q 436 342 474 412 l 1045 374 l 1073 21 l 47 -24 q 24 56 32 19 q 47 380 -17 246 q 479 709 124 543 q 697 889 677 801 q 697 972 703 938 q 654 1041 688 1011 q 573 1071 620 1071 q 491 938 468 1071 l 68 872 z "},"3":{"ha":1017,"x_min":-28,"x_max":1024,"o":"m 814 739 q 975 561 927 654 q 1019 380 1024 468 q 968 215 1015 293 q 844 80 921 137 q 670 -4 767 24 q 470 -21 573 -32 q 344 3 402 -15 q 238 47 286 21 q 152 103 190 73 q 83 162 113 132 q -28 316 15 231 l 288 483 q 348 418 314 453 q 420 358 382 382 q 498 325 457 333 q 577 338 538 316 q 627 393 615 361 q 630 458 639 425 q 597 521 622 491 q 534 571 573 551 q 464 596 500 590 q 397 603 427 603 q 325 596 361 603 l 299 846 q 434 854 378 838 q 524 889 489 870 q 588 949 562 912 q 608 1018 609 989 q 560 1073 607 1047 q 487 1081 524 1092 q 419 1046 451 1071 q 359 987 387 1021 q 310 923 331 953 l 43 1122 q 137 1250 81 1190 q 263 1345 186 1299 q 449 1406 340 1391 q 615 1400 530 1417 q 772 1341 701 1382 q 894 1237 844 1299 q 958 1097 944 1175 q 940 927 972 1019 q 814 739 908 835 z "},"4":{"ha":1081,"x_min":2,"x_max":1075,"o":"m 583 1220 l 972 1276 q 932 677 940 895 l 1041 684 l 1075 325 q 1000 325 1049 325 q 936 323 959 323 q 949 75 936 197 l 590 -2 l 585 312 q 130 280 363 299 l 2 440 l 120 1355 l 553 1408 q 389 652 444 1000 l 585 660 l 583 1220 z "},"5":{"ha":1071,"x_min":0,"x_max":1068,"o":"m 936 1064 q 404 1041 679 1051 q 397 955 402 1011 q 1026 688 951 947 q 996 434 1068 573 q 840 220 947 318 q 376 2 611 2 q 113 135 220 2 q 24 333 49 205 q 0 502 6 410 l 425 474 q 425 408 417 434 q 466 372 432 372 q 491 374 476 372 q 622 468 579 397 q 635 538 643 509 q 588 609 624 577 q 350 660 536 660 q 162 652 269 660 l 21 624 q 41 1368 19 906 l 902 1412 l 936 1064 z "},"6":{"ha":1100,"x_min":0,"x_max":1094,"o":"m 912 786 q 1025 687 985 739 q 1079 582 1064 635 q 1091 479 1094 530 q 1074 385 1088 427 q 1044 308 1060 342 q 1015 256 1028 274 q 908 128 966 184 q 791 37 850 73 q 676 -16 731 2 q 577 -34 622 -34 l 541 -34 q 408 -15 476 -34 q 251 51 329 6 q 115 183 173 96 q 29 405 58 269 q 21 739 0 541 q 66 966 34 868 q 142 1136 98 1064 q 237 1255 186 1207 q 342 1333 288 1303 q 607 1410 462 1406 l 628 1410 q 875 1335 765 1410 q 1051 1130 985 1261 l 750 981 q 706 1024 729 1009 q 662 1045 684 1038 q 611 1056 637 1056 q 596 1056 603 1056 q 544 1040 575 1056 q 483 991 513 1024 q 426 910 453 959 q 387 795 400 861 q 455 830 406 808 q 575 862 504 853 q 731 859 645 872 q 912 786 816 846 m 754 449 q 748 536 769 502 q 687 590 726 571 q 598 610 647 609 q 507 597 549 611 q 437 551 466 583 q 412 474 408 519 q 473 358 419 404 q 581 299 528 312 q 628 301 603 295 q 677 324 654 308 q 721 370 701 340 q 754 449 741 400 z "},"7":{"ha":870,"x_min":-26,"x_max":895,"o":"m 895 1436 l 511 30 l 130 -2 l 391 1017 l -26 991 l -9 1350 l 895 1436 z "},"8":{"ha":1205,"x_min":-19,"x_max":1203,"o":"m 940 833 q 1197 549 1158 737 q 1201 464 1203 511 q 1009 126 1194 271 q 583 -24 827 -9 q 162 83 333 -41 q 15 297 41 169 q 94 613 -19 462 q 299 793 165 722 q 120 991 145 865 q 115 1062 115 1021 q 286 1333 122 1218 q 643 1449 440 1436 q 996 1363 850 1457 q 1132 1184 1111 1288 q 1137 1120 1139 1154 q 940 833 1130 953 m 620 1100 q 502 1059 553 1098 q 462 968 451 1019 q 609 891 481 885 q 724 933 673 895 q 763 1021 776 970 q 709 1085 756 1064 q 620 1100 662 1107 m 622 624 q 449 562 524 615 q 391 419 372 502 q 470 323 400 359 q 607 299 532 295 q 780 365 707 306 q 840 509 855 427 q 761 597 827 566 q 622 624 694 628 z "},"9":{"ha":1100,"x_min":9,"x_max":1103,"o":"m 190 590 q 77 687 115 635 q 24 793 38 739 q 12 897 9 846 q 28 991 15 949 q 58 1068 41 1034 q 85 1120 75 1103 q 193 1248 135 1192 q 311 1339 252 1303 q 425 1392 370 1374 q 524 1410 481 1410 l 560 1410 q 694 1391 626 1410 q 850 1325 774 1370 q 986 1193 927 1280 q 1074 971 1045 1107 q 1081 637 1103 835 q 1034 410 1066 509 q 958 240 1002 312 q 863 121 915 169 q 761 43 812 73 q 496 -34 639 -30 l 472 -34 q 226 41 338 -34 q 51 246 115 115 l 350 395 q 394 353 372 368 q 440 331 417 338 q 489 321 464 321 q 504 321 498 321 q 559 337 528 321 q 620 385 590 353 q 676 466 650 417 q 714 581 703 515 q 645 546 694 568 q 527 514 596 524 q 371 517 457 504 q 190 590 284 530 m 363 947 q 372 859 350 893 q 432 806 393 825 q 520 785 470 786 q 612 798 571 784 q 682 844 654 812 q 707 921 709 876 q 646 1037 701 991 q 538 1096 592 1083 q 491 1094 517 1100 q 441 1072 466 1088 q 397 1026 417 1056 q 363 947 378 996 z "},"!":{"ha":515,"x_min":28,"x_max":530,"o":"m 192 -21 q 122 7 154 -13 q 67 62 90 28 q 36 132 45 96 q 38 212 28 169 q 71 280 45 250 q 128 330 96 310 q 202 360 160 350 q 282 365 244 370 q 357 332 323 357 q 411 278 391 308 q 440 209 432 248 q 438 135 449 171 q 407 62 429 96 q 350 7 385 28 q 277 -21 316 -13 q 192 -21 237 -30 m 115 494 q 111 955 118 491 q 105 1451 107 1171 l 530 1425 l 393 476 q 115 494 113 494 z "},"\"":{"ha":639,"x_min":21,"x_max":630,"o":"m 288 1519 q 282 983 250 1209 l 45 887 l 21 1436 l 288 1519 m 630 1502 q 575 968 564 1192 l 333 902 l 359 1455 l 630 1502 z "}," ":{"ha":483,"x_min":0,"x_max":0,"o":""},"#":{"ha":1479,"x_min":41,"x_max":1408,"o":"m 310 1267 l 656 1318 q 624 996 639 1160 l 823 1006 l 823 1267 l 1162 1318 q 1137 1019 1145 1169 l 1406 1034 l 1408 784 q 1267 781 1363 782 q 1128 776 1171 780 q 1124 632 1120 703 l 1385 647 l 1402 397 q 1124 389 1310 393 q 1130 280 1128 331 l 1139 171 l 825 98 l 825 376 q 615 365 752 374 q 624 171 615 267 l 312 98 l 312 342 q 220 335 263 340 l 118 329 l 41 579 l 312 592 l 312 729 q 118 714 220 726 l 60 968 l 310 985 l 310 1267 m 611 750 q 607 609 611 703 l 823 620 l 825 761 q 611 750 750 759 z "},"$":{"ha":1088,"x_min":11,"x_max":1058,"o":"m 464 1581 l 600 1581 l 613 1573 l 611 1543 l 611 1472 l 620 1464 l 688 1464 q 887 1438 865 1451 l 955 1421 q 1021 1382 1021 1400 l 1021 1378 l 1006 1344 l 991 1288 l 942 1145 l 900 1034 l 897 1034 q 846 1056 878 1034 l 795 1073 q 641 1096 750 1090 l 600 1100 l 598 1085 l 598 844 l 607 833 l 635 833 l 707 818 q 848 769 780 803 q 987 675 912 748 q 1030 603 1030 613 q 1041 562 1038 603 q 1058 511 1051 562 l 1058 427 q 991 261 1041 335 q 923 179 991 250 q 840 118 880 139 q 718 53 782 77 q 675 34 718 47 q 624 21 675 30 q 581 9 620 15 l 581 -75 l 568 -90 l 449 -90 q 429 -77 432 -90 l 429 -24 l 421 -17 l 404 -17 q 194 9 263 -4 q 141 28 177 9 q 11 85 38 56 l 11 92 l 26 205 q 41 297 34 205 q 60 406 49 308 l 66 406 q 156 342 81 406 l 194 329 q 248 310 224 310 q 382 286 248 297 q 432 301 432 286 l 429 310 l 432 432 l 432 577 q 344 603 415 592 q 306 622 344 609 l 267 639 q 241 650 265 650 q 207 667 241 658 l 143 720 q 79 797 96 759 q 21 940 41 846 l 21 1034 q 38 1109 21 1064 q 147 1276 60 1188 q 297 1382 194 1325 q 404 1421 393 1421 q 444 1444 421 1421 l 442 1474 l 442 1553 q 464 1581 442 1581 m 276 1009 q 342 921 276 966 q 382 900 357 921 q 410 891 395 900 l 419 891 l 421 1083 l 427 1107 q 361 1090 393 1092 q 314 1068 357 1083 q 276 1009 276 1034 m 590 506 l 583 263 l 585 263 q 684 293 650 276 q 712 310 697 293 q 771 370 737 310 l 771 421 q 677 489 733 474 q 628 506 677 502 l 611 517 l 598 517 q 590 506 590 517 z "},"%":{"ha":1214,"x_min":2,"x_max":1158,"o":"m 412 1464 q 528 1415 515 1436 q 613 1303 575 1402 l 620 1248 q 513 996 620 1105 q 370 915 432 923 q 256 891 370 900 l 250 891 q 98 936 150 891 q 15 1032 41 970 l 2 1081 l 2 1165 q 49 1286 17 1237 q 150 1397 62 1316 q 310 1464 220 1449 l 412 1464 m 891 1464 l 923 1438 q 942 1434 923 1434 q 1064 1363 964 1408 l 1064 1357 q 1021 1286 1064 1350 l 915 1096 q 897 1068 906 1096 q 878 1034 887 1064 l 750 821 q 376 241 585 547 q 154 -36 250 68 q 2 98 126 -30 l 2 100 q 145 280 56 150 q 412 686 237 406 l 530 874 q 876 1455 701 1150 l 891 1464 m 233 1154 q 269 1088 233 1105 l 280 1083 l 310 1083 q 385 1141 344 1083 l 395 1194 l 395 1209 q 346 1267 395 1252 l 310 1267 q 250 1216 250 1244 q 233 1154 233 1216 m 915 675 q 1124 547 1056 675 q 1158 459 1139 534 l 1158 338 q 1109 171 1141 246 q 921 -17 1041 32 q 825 -41 844 -41 l 806 -41 q 639 45 707 -41 q 590 139 607 85 q 577 194 590 152 l 577 201 l 579 201 l 577 241 l 577 267 q 603 387 592 376 q 720 590 624 483 q 885 673 823 673 l 915 675 m 786 291 q 810 220 791 220 q 833 205 810 205 l 857 205 q 927 267 885 205 l 944 338 l 944 342 q 885 417 944 406 l 863 417 q 806 363 825 397 q 786 291 793 342 z "},"&":{"ha":1269,"x_min":53,"x_max":1237,"o":"m 472 1299 l 547 1299 l 622 1284 q 818 1158 748 1248 q 863 1064 863 1100 q 872 1021 865 1064 q 857 915 872 996 q 842 874 850 915 q 814 838 838 874 q 709 744 735 756 q 675 722 686 722 q 658 709 675 714 l 658 703 l 791 592 q 840 562 829 562 q 895 658 889 628 q 927 731 917 684 q 940 769 936 731 l 942 771 l 949 771 q 1000 741 985 744 q 1077 703 1000 733 l 1145 677 l 1150 665 l 1124 590 q 1115 566 1120 590 q 1098 538 1109 562 l 1032 429 q 1081 402 1032 421 q 1197 338 1128 370 q 1237 314 1222 329 l 1237 312 q 1158 186 1212 259 q 1077 79 1115 120 l 1068 77 l 983 120 l 850 201 l 744 128 l 686 103 l 658 92 l 611 77 l 547 60 l 440 53 q 291 77 329 60 q 186 126 212 100 q 83 248 137 147 q 53 361 66 284 l 53 382 q 66 474 53 438 q 107 558 77 509 q 165 628 126 588 q 288 731 233 699 l 288 735 l 261 795 q 197 966 201 906 q 192 989 194 966 l 190 989 l 192 1002 l 192 1026 q 220 1115 205 1115 q 286 1216 220 1139 q 395 1280 342 1263 q 472 1299 397 1284 m 481 1064 l 472 1064 q 432 1009 432 1036 q 468 902 432 940 q 502 874 485 880 q 611 955 553 874 l 622 979 l 622 1002 q 609 1032 609 1013 q 519 1071 573 1071 l 481 1064 m 331 442 l 331 391 q 365 338 331 368 q 442 310 408 312 l 444 310 q 566 338 551 321 q 622 365 579 338 l 622 374 q 429 551 598 374 l 421 551 q 338 457 357 494 q 331 442 331 457 z "},"'":{"ha":417,"x_min":45,"x_max":361,"o":"m 361 1588 l 295 1028 l 64 1009 l 45 1530 l 361 1588 z "},"(":{"ha":579,"x_min":-308,"x_max":434,"o":"m 434 1583 q 429 -158 188 759 l 291 -237 q 284 1641 -308 724 l 434 1583 z "},")":{"ha":588,"x_min":145,"x_max":887,"o":"m 295 1641 q 288 -237 887 724 l 150 -158 q 145 1583 391 759 l 295 1641 z "},"*":{"ha":829,"x_min":17,"x_max":776,"o":"m 776 1209 q 564 1081 675 1145 l 726 962 l 577 801 q 466 885 560 814 q 453 731 457 808 l 248 697 l 276 891 q 198 840 250 874 q 122 791 145 806 l 17 940 l 220 1066 q 56 1171 143 1115 l 184 1355 l 325 1252 l 350 1429 l 549 1432 l 532 1344 q 519 1254 526 1295 l 705 1374 l 776 1209 z "},"+":{"ha":979,"x_min":60,"x_max":910,"o":"m 910 502 q 652 476 780 489 q 677 250 654 389 l 361 205 l 361 442 q 141 412 267 434 l 60 701 l 340 731 l 306 991 l 650 1015 q 613 750 615 821 l 861 786 l 910 502 z "},",":{"ha":438,"x_min":-96,"x_max":346,"o":"m 346 291 q 154 -169 226 41 l -96 -162 l 28 308 l 346 291 z "},"-":{"ha":622,"x_min":60,"x_max":560,"o":"m 553 511 q 79 500 282 526 l 60 823 l 560 829 l 553 511 z "},".":{"ha":489,"x_min":6,"x_max":427,"o":"m 171 -21 q 99 7 135 -13 q 44 62 64 28 q 15 132 24 96 q 17 212 6 169 q 49 280 24 250 q 107 330 75 310 q 181 360 139 350 q 261 365 222 370 q 335 332 301 357 q 390 278 370 308 q 419 209 410 248 q 417 135 427 171 q 386 62 408 96 q 329 7 363 28 q 255 -21 295 -13 q 171 -21 216 -30 z "},"/":{"ha":1282,"x_min":-47,"x_max":1333,"o":"m 959 1412 l 1333 1325 q 314 -51 703 558 l -47 0 l 959 1412 z "},":":{"ha":502,"x_min":32,"x_max":453,"o":"m 197 241 q 127 270 160 250 q 72 325 94 291 q 41 395 49 359 q 43 472 32 432 q 75 543 49 513 q 132 592 100 573 q 206 621 165 611 q 286 624 248 630 q 362 591 329 613 q 416 540 395 568 q 444 472 436 511 q 442 395 453 434 q 411 325 434 359 q 355 270 389 291 q 281 241 321 250 q 197 241 241 233 m 197 731 q 127 763 160 741 q 72 816 94 784 q 41 887 49 848 q 43 966 32 925 q 75 1034 49 1002 q 132 1087 100 1066 q 206 1114 165 1107 q 286 1118 248 1122 q 362 1087 329 1109 q 416 1032 395 1064 q 444 964 436 1000 q 442 887 453 927 q 411 816 434 848 q 355 763 389 784 q 281 732 321 741 q 197 731 241 722 z "},";":{"ha":528,"x_min":-79,"x_max":402,"o":"m 156 600 q 84 630 115 611 q 34 678 53 650 q 4 743 15 707 q 6 814 -6 778 q 37 877 15 848 q 90 925 60 906 q 160 951 120 944 q 237 953 201 957 q 312 924 282 944 q 361 875 342 904 q 391 813 380 846 q 391 744 402 780 q 358 678 380 707 q 304 630 335 650 q 234 601 274 611 q 156 600 194 592 m 308 385 q 132 -124 199 107 l -79 -118 l 21 393 l 308 385 z "},"=":{"ha":897,"x_min":28,"x_max":870,"o":"m 844 720 q 113 643 425 694 l 28 929 l 799 1006 l 844 720 m 870 306 q 141 229 500 286 l 53 519 l 823 592 l 870 306 z "},"?":{"ha":833,"x_min":19,"x_max":823,"o":"m 376 609 l 359 468 l 96 483 l 85 808 q 449 1036 425 893 q 81 1160 472 1179 l 122 1476 q 581 1382 404 1455 q 806 1088 823 1282 q 534 684 780 838 q 376 609 472 647 m 184 -21 q 112 7 145 -13 q 57 62 79 28 q 27 132 34 96 q 28 212 19 169 q 60 280 34 250 q 118 330 85 310 q 192 360 150 350 q 271 365 235 370 q 348 332 314 357 q 402 278 382 308 q 429 209 421 248 q 429 135 438 171 q 396 62 419 96 q 341 7 374 28 q 267 -21 308 -13 q 184 -21 226 -30 z "},"@":{"ha":1692,"x_min":-4,"x_max":1722,"o":"m 874 1051 q 1024 1051 951 1071 l 1026 1066 q 1096 1071 1066 1071 q 1155 1066 1115 1071 q 1216 1062 1194 1062 q 1291 1071 1252 1062 q 1220 690 1252 868 l 1147 314 q 1410 679 1359 511 q 1438 846 1438 771 q 1248 1169 1438 1051 q 906 1269 1094 1269 q 432 1051 598 1269 q 306 624 306 885 q 389 186 306 436 l 56 -41 q -4 500 -4 259 q 141 1143 -4 874 q 491 1498 269 1376 q 932 1607 694 1607 q 1444 1453 1220 1607 q 1722 970 1722 1269 q 1556 421 1722 750 q 1085 -24 1417 150 l 910 143 l 936 318 q 662 226 803 226 q 500 288 564 226 q 417 483 417 363 q 583 870 417 688 q 874 1051 714 1015 m 803 658 q 713 597 754 647 q 671 489 671 547 q 737 412 671 412 q 850 468 799 412 q 897 562 889 511 q 875 639 906 611 q 803 658 844 667 z "},"A":{"ha":1081,"x_min":-28,"x_max":1111,"o":"m -28 79 q 276 1385 173 735 l 786 1455 q 1111 111 874 874 l 722 21 l 671 261 l 417 233 l 372 -9 l -28 79 m 615 513 l 528 1021 l 442 511 l 615 513 z "},"B":{"ha":1056,"x_min":24,"x_max":1062,"o":"m 51 761 q 24 1353 28 1306 q 389 1425 186 1423 q 735 1346 598 1427 q 891 1115 878 1259 q 729 806 902 953 q 1019 596 938 780 q 1047 425 1062 513 q 964 248 1034 325 q 551 26 806 75 q 66 24 368 -4 q 51 761 75 370 m 376 335 q 543 346 474 329 q 658 451 641 376 q 577 585 682 549 q 368 583 479 622 l 376 335 m 342 889 q 547 998 509 925 q 462 1150 611 1135 q 323 1135 402 1158 l 342 889 z "},"C":{"ha":912,"x_min":-4,"x_max":936,"o":"m 83 346 q -2 741 -4 534 q 77 1107 2 938 q 276 1374 152 1280 q 573 1451 412 1474 q 936 1254 750 1427 l 838 1124 l 737 994 q 440 1011 553 1118 q 346 726 342 921 q 453 449 357 536 q 744 474 566 342 l 929 237 q 607 9 784 43 q 306 79 453 -21 q 83 346 167 171 z "},"D":{"ha":1073,"x_min":41,"x_max":1073,"o":"m 41 1376 q 485 1408 297 1425 q 831 1288 703 1389 q 1058 959 1017 1143 q 1068 816 1073 887 q 989 528 1058 658 q 754 256 912 376 q 562 137 667 184 q 56 24 338 28 l 51 24 l 45 1147 q 41 1376 41 1350 m 408 709 q 412 429 406 560 q 639 607 558 485 q 699 844 712 724 q 603 1000 684 949 q 425 1038 532 1045 q 408 709 410 848 z "},"E":{"ha":910,"x_min":38,"x_max":889,"o":"m 635 1088 q 434 1064 530 1075 q 425 968 427 998 l 419 874 l 579 897 l 737 927 l 752 795 l 771 660 q 566 628 613 635 q 419 603 483 613 l 415 425 l 630 455 l 844 485 l 868 310 l 889 135 q 515 92 722 124 q 53 2 306 56 q 49 340 51 118 l 45 684 q 38 1363 41 1132 l 421 1408 l 806 1453 l 829 1280 l 853 1105 q 635 1088 737 1096 z "},"F":{"ha":874,"x_min":17,"x_max":855,"o":"m 410 1051 l 404 848 l 810 921 l 848 656 q 404 583 609 622 q 425 83 404 329 l 38 -2 l 17 1357 l 806 1447 l 855 1096 q 410 1051 620 1083 z "},"G":{"ha":1224,"x_min":0,"x_max":1224,"o":"m 297 43 q 122 201 194 98 q 56 316 85 259 q 17 442 32 380 q 2 577 4 509 q 6 722 0 650 q 66 970 21 850 q 194 1197 118 1090 q 417 1393 295 1329 q 684 1457 538 1457 q 912 1404 810 1457 q 1090 1237 1013 1350 l 985 1124 l 876 1011 q 632 1090 771 1135 q 417 893 511 1047 q 340 530 310 720 q 417 374 359 429 q 605 316 485 310 q 782 387 705 321 q 880 549 855 449 q 707 517 806 536 q 547 479 643 504 l 553 620 l 560 759 l 885 816 l 1209 868 q 1222 733 1224 806 q 1207 583 1222 665 q 1162 451 1188 515 q 1100 329 1137 387 q 857 77 1000 160 q 526 -9 712 -9 q 297 43 402 -9 z "},"H":{"ha":1049,"x_min":30,"x_max":1017,"o":"m 453 1432 q 408 786 415 1056 l 596 818 l 592 1370 l 1017 1432 q 991 90 942 641 l 598 0 l 596 530 q 404 494 532 517 q 427 90 410 256 l 38 0 l 30 1370 l 453 1432 z "},"I":{"ha":515,"x_min":64,"x_max":457,"o":"m 64 1368 l 263 1400 l 457 1429 q 412 718 419 1047 q 427 113 406 389 l 248 66 l 66 26 l 64 1368 z "},"J":{"ha":842,"x_min":-19,"x_max":810,"o":"m 408 1370 l 607 1402 l 810 1432 q 767 712 774 1041 q 782 115 756 385 l 421 30 q 207 62 412 30 q 60 85 128 77 l -19 100 l 120 434 l 265 415 l 410 397 l 408 1370 z "},"K":{"ha":1051,"x_min":34,"x_max":1094,"o":"m 34 1370 l 429 1432 q 408 1167 410 1265 q 722 1444 581 1308 l 1058 1288 l 662 959 l 1094 184 l 705 2 l 382 718 q 395 115 376 408 l 43 28 l 34 1370 z "},"L":{"ha":818,"x_min":38,"x_max":829,"o":"m 38 1365 l 429 1427 q 382 457 376 897 l 791 509 l 829 154 q 41 24 513 135 l 38 1365 z "},"M":{"ha":1421,"x_min":-28,"x_max":1453,"o":"m -28 53 q 250 1363 156 635 l 607 1436 l 714 746 l 810 1408 l 1150 1436 q 1453 62 1229 786 l 1075 -15 l 938 688 l 853 24 l 541 -2 l 455 731 l 340 -21 l -28 53 z "},"N":{"ha":1107,"x_min":51,"x_max":1071,"o":"m 51 1406 l 444 1472 q 476 1301 453 1410 q 598 848 538 1041 q 675 671 635 735 l 675 1408 l 1071 1472 q 1036 152 989 705 l 679 66 q 632 135 677 75 l 449 415 q 393 504 404 481 q 410 66 393 274 l 53 -21 l 51 1406 z "},"O":{"ha":1115,"x_min":-4,"x_max":1120,"o":"m 147 1188 q 583 1444 312 1444 q 970 1233 816 1444 q 1088 994 1056 1118 q 1115 722 1120 870 q 966 261 1107 472 q 530 2 799 2 q 141 218 293 2 q 30 444 68 310 q 2 722 -4 577 q 147 1188 15 979 m 720 944 q 575 1073 667 1073 q 406 912 468 1073 q 346 662 357 791 q 363 547 344 600 q 427 427 382 466 q 558 380 479 380 q 722 476 667 380 q 769 682 767 558 q 720 944 771 818 z "},"P":{"ha":998,"x_min":30,"x_max":998,"o":"m 53 682 q 30 1380 62 1267 q 575 1449 370 1462 q 880 1335 780 1436 q 996 1026 994 1231 q 923 735 998 865 q 735 553 855 628 q 402 432 596 462 q 417 38 393 295 l 38 0 q 53 682 49 188 m 391 769 q 596 846 517 771 q 667 987 656 900 q 590 1135 686 1098 q 382 1122 515 1165 l 391 769 z "},"Q":{"ha":1205,"x_min":0,"x_max":1254,"o":"m 562 662 l 709 729 l 857 799 q 801 983 844 902 q 658 1090 744 1090 q 436 927 534 1090 q 340 647 357 791 q 438 391 329 483 q 694 370 551 293 l 562 662 m 1073 1248 q 1179 1006 1150 1137 q 1083 370 1254 684 q 1197 124 1111 291 l 902 -41 l 848 98 q 528 -9 688 -9 q 130 205 280 -9 q 28 449 53 314 q 17 724 0 575 q 199 1199 43 983 q 684 1466 402 1466 q 1073 1248 925 1466 z "},"R":{"ha":1030,"x_min":30,"x_max":1062,"o":"m 382 987 l 376 850 q 519 936 451 885 q 620 1088 632 1024 q 543 1139 609 1135 q 389 1120 485 1141 q 382 987 382 1049 m 615 1462 q 989 1212 940 1462 q 712 720 1013 912 q 1062 284 759 647 q 746 9 938 173 l 376 547 q 391 77 374 288 l 38 -13 q 30 1368 68 1015 q 615 1462 382 1462 z "},"S":{"ha":1085,"x_min":-17,"x_max":1107,"o":"m 985 1188 q 1006 1038 998 1122 q 840 983 955 1021 l 673 929 q 588 1017 656 1017 q 432 940 504 1017 q 404 825 385 878 q 506 791 419 791 q 615 801 551 791 q 799 818 718 818 q 1051 707 996 818 q 1081 635 1071 673 q 1019 374 1107 515 q 675 64 915 188 q 417 -2 553 -2 q 162 51 293 -2 q 280 391 194 167 q 449 344 365 344 q 526 359 485 344 q 656 402 596 372 q 729 483 737 440 q 622 534 720 534 q 436 513 558 534 q 248 485 314 485 q 111 517 160 485 q 0 671 4 564 q 226 1156 -17 878 q 703 1453 476 1440 q 985 1188 925 1464 z "},"T":{"ha":1006,"x_min":-15,"x_max":1021,"o":"m 1021 1088 q 665 1066 774 1075 q 718 62 647 833 l 301 -24 l 299 1032 q 154 1015 267 1030 q -15 996 51 1002 l 11 1361 l 959 1451 l 1021 1088 z "},"U":{"ha":1096,"x_min":-28,"x_max":1113,"o":"m 137 1421 l 534 1389 l 466 1056 l 406 720 q 391 611 406 697 q 376 485 376 534 q 515 333 376 333 q 673 402 613 333 q 724 560 724 459 l 632 1447 l 1024 1423 l 1062 951 l 1096 474 q 929 128 1113 244 q 474 6 791 43 q 66 141 179 -26 q 9 553 -28 286 l 137 1421 z "},"V":{"ha":994,"x_min":-13,"x_max":1002,"o":"m 395 1447 q 481 551 419 1143 q 573 1402 553 1113 l 1002 1368 q 699 75 829 759 l 201 4 q -13 1370 156 568 l 395 1447 z "},"W":{"ha":1404,"x_min":-28,"x_max":1436,"o":"m 1436 1370 q 1158 75 1252 797 l 771 -6 l 690 613 l 607 21 l 259 0 q -28 1314 179 643 l 350 1393 l 468 741 l 547 1436 l 861 1462 l 953 699 l 1068 1447 l 1436 1370 z "},"X":{"ha":1032,"x_min":-47,"x_max":1088,"o":"m 344 1496 l 432 1308 q 515 1120 472 1220 l 590 1286 q 671 1451 632 1374 l 1088 1423 l 701 735 q 1011 175 857 425 l 722 -26 l 504 389 l 280 -2 l -47 85 q 318 726 141 376 l 11 1306 l 344 1496 z "},"Y":{"ha":1045,"x_min":-28,"x_max":1073,"o":"m 1073 1387 q 761 665 893 1009 q 547 15 630 321 l 175 34 l 335 476 l 154 878 l -28 1284 l 393 1464 q 432 1235 408 1368 q 509 959 457 1094 l 677 1438 l 1073 1387 z "},"Z":{"ha":1150,"x_min":4,"x_max":1130,"o":"m 1115 1436 q 1130 1083 1120 1346 q 810 735 1047 998 q 654 564 729 656 q 511 391 549 453 l 1066 419 l 1094 64 q 79 4 476 49 l 4 361 q 321 707 83 451 l 658 1064 q 226 1015 453 1047 l 162 1378 l 1115 1436 z "},"[":{"ha":592,"x_min":51,"x_max":801,"o":"m 408 -64 q 425 -62 417 -64 q 526 -47 476 -53 q 726 -6 630 -30 l 801 -291 q 94 -378 350 -380 q 66 265 79 -73 q 58 563 62 404 q 52 890 53 722 q 53 1231 51 1058 q 62 1566 56 1402 l 60 1594 q 321 1665 152 1626 q 540 1710 489 1703 q 641 1722 590 1718 l 690 1436 q 483 1408 588 1425 q 391 1389 438 1400 q 389 1006 389 1197 q 392 685 391 853 q 399 340 393 517 q 408 -15 404 162 q 408 -64 410 -41 z "},"\\":{"ha":1030,"x_min":-15,"x_max":1034,"o":"m 184 1733 q 457 1169 314 1455 q 592 915 524 1049 q 734 640 660 780 q 885 359 808 500 q 1034 85 962 218 l 793 -51 q 515 453 656 188 q 386 690 453 562 q 251 953 318 818 q 115 1228 184 1088 q -15 1502 47 1368 l 184 1733 z "},"]":{"ha":361,"x_min":-100,"x_max":581,"o":"m -62 -310 l -100 -32 q 111 -15 2 -28 q 201 2 154 -6 q 224 368 218 179 q 239 673 233 513 q 251 1001 246 833 q 259 1344 256 1169 l 259 1402 q 256 1404 256 1402 q 154 1404 199 1404 q -53 1400 45 1404 l -66 1675 q 35 1681 -19 1679 q 139 1681 90 1682 q 238 1677 188 1679 q 329 1673 288 1675 q 532 1652 434 1665 q 581 1066 577 1261 q 574 780 579 932 q 562 468 568 628 q 547 143 556 308 q 526 -158 536 -15 l 526 -205 q 329 -252 429 -233 q 141 -284 297 -261 q -62 -310 -15 -308 z "},"^":{"ha":1408,"x_min":-2,"x_max":1504,"o":"m 169 -26 q 96 3 130 -17 q 42 58 62 24 q 13 128 21 92 q 15 205 4 165 q 45 276 21 246 q 103 325 68 306 q 178 355 137 344 q 259 361 220 365 q 333 324 299 346 q 388 272 368 301 q 417 205 408 244 q 415 128 425 167 q 384 58 406 92 q 327 3 361 24 q 252 -27 293 -17 q 169 -26 212 -36 m 66 457 q 57 722 68 479 q -2 1464 45 966 l 436 1515 l 361 474 q 66 457 64 481 m 556 -6 q 483 22 517 2 q 428 77 449 43 q 400 147 408 111 q 402 226 391 184 q 432 294 408 265 q 489 345 455 323 q 563 376 524 368 q 643 380 603 385 q 718 345 686 370 q 772 292 750 321 q 802 224 795 263 q 801 147 810 186 q 768 77 793 111 q 712 22 744 43 q 638 -7 679 2 q 556 -6 596 -17 m 526 1568 l 1038 1628 l 780 474 q 486 487 500 502 q 493 815 472 472 q 526 1568 513 1158 m 897 476 q 959 822 900 472 q 1038 1438 1019 1171 l 1504 1380 l 1169 408 q 897 476 895 476 m 932 -24 q 858 5 891 -15 q 804 60 825 26 q 776 130 784 94 q 776 207 767 167 q 808 278 784 248 q 863 327 831 308 q 937 357 895 346 q 1017 363 979 368 q 1096 328 1064 350 q 1147 276 1128 306 q 1176 207 1167 246 q 1173 130 1186 169 q 1142 60 1165 94 q 1088 5 1120 26 q 1014 -24 1056 -15 q 932 -24 972 -32 z "},"_":{"ha":951,"x_min":-19,"x_max":964,"o":"m 949 -182 q 15 -188 412 -173 l -19 4 l 964 9 l 949 -182 z "},"`":{"ha":402,"x_min":-51,"x_max":370,"o":"m 237 1513 l 370 1096 l 154 1036 l -51 1440 l 237 1513 z "},"a":{"ha":1081,"x_min":-28,"x_max":1111,"o":"m -28 79 q 276 1385 173 735 l 786 1455 q 1111 111 874 874 l 722 21 l 671 261 l 417 233 l 372 -9 l -28 79 m 615 513 l 528 1021 l 442 511 l 615 513 z "},"b":{"ha":1056,"x_min":24,"x_max":1062,"o":"m 51 761 q 24 1353 28 1306 q 389 1425 186 1423 q 735 1346 598 1427 q 891 1115 878 1259 q 729 806 902 953 q 1019 596 938 780 q 1047 425 1062 513 q 964 248 1034 325 q 551 26 806 75 q 66 24 368 -4 q 51 761 75 370 m 376 335 q 543 346 474 329 q 658 451 641 376 q 577 585 682 549 q 368 583 479 622 l 376 335 m 342 889 q 547 998 509 925 q 462 1150 611 1135 q 323 1135 402 1158 l 342 889 z "},"c":{"ha":912,"x_min":-4,"x_max":936,"o":"m 83 346 q -2 741 -4 534 q 77 1107 2 938 q 276 1374 152 1280 q 573 1451 412 1474 q 936 1254 750 1427 l 838 1124 l 737 994 q 440 1011 553 1118 q 346 726 342 921 q 453 449 357 536 q 744 474 566 342 l 929 237 q 607 9 784 43 q 306 79 453 -21 q 83 346 167 171 z "},"d":{"ha":1073,"x_min":41,"x_max":1073,"o":"m 41 1376 q 485 1408 297 1425 q 831 1288 703 1389 q 1058 959 1017 1143 q 1068 816 1073 887 q 989 528 1058 658 q 754 256 912 376 q 562 137 667 184 q 56 24 338 28 l 51 24 l 45 1147 q 41 1376 41 1350 m 408 709 q 412 429 406 560 q 639 607 558 485 q 699 844 712 724 q 603 1000 684 949 q 425 1038 532 1045 q 408 709 410 848 z "},"e":{"ha":910,"x_min":38,"x_max":889,"o":"m 635 1088 q 434 1064 530 1075 q 425 968 427 998 l 419 874 l 579 897 l 737 927 l 752 795 l 771 660 q 566 628 613 635 q 419 603 483 613 l 415 425 l 630 455 l 844 485 l 868 310 l 889 135 q 515 92 722 124 q 53 2 306 56 q 49 340 51 118 l 45 684 q 38 1363 41 1132 l 421 1408 l 806 1453 l 829 1280 l 853 1105 q 635 1088 737 1096 z "},"f":{"ha":874,"x_min":17,"x_max":855,"o":"m 410 1051 l 404 848 l 810 921 l 848 656 q 404 583 609 622 q 425 83 404 329 l 38 -2 l 17 1357 l 806 1447 l 855 1096 q 410 1051 620 1083 z "},"g":{"ha":1224,"x_min":0,"x_max":1224,"o":"m 297 43 q 122 201 194 98 q 56 316 85 259 q 17 442 32 380 q 2 577 4 509 q 6 722 0 650 q 66 970 21 850 q 194 1197 118 1090 q 417 1393 295 1329 q 684 1457 538 1457 q 912 1404 810 1457 q 1090 1237 1013 1350 l 985 1124 l 876 1011 q 632 1090 771 1135 q 417 893 511 1047 q 340 530 310 720 q 417 374 359 429 q 605 316 485 310 q 782 387 705 321 q 880 549 855 449 q 707 517 806 536 q 547 479 643 504 l 553 620 l 560 759 l 885 816 l 1209 868 q 1222 733 1224 806 q 1207 583 1222 665 q 1162 451 1188 515 q 1100 329 1137 387 q 857 77 1000 160 q 526 -9 712 -9 q 297 43 402 -9 z "},"h":{"ha":1049,"x_min":30,"x_max":1017,"o":"m 453 1432 q 408 786 415 1056 l 596 818 l 592 1370 l 1017 1432 q 991 90 942 641 l 598 0 l 596 530 q 404 494 532 517 q 427 90 410 256 l 38 0 l 30 1370 l 453 1432 z "},"i":{"ha":515,"x_min":64,"x_max":457,"o":"m 64 1368 l 263 1400 l 457 1429 q 412 718 419 1047 q 427 113 406 389 l 248 66 l 66 26 l 64 1368 z "},"j":{"ha":842,"x_min":-19,"x_max":810,"o":"m 408 1370 l 607 1402 l 810 1432 q 767 712 774 1041 q 782 115 756 385 l 421 30 q 207 62 412 30 q 60 85 128 77 l -19 100 l 120 434 l 265 415 l 410 397 l 408 1370 z "},"k":{"ha":1051,"x_min":34,"x_max":1094,"o":"m 34 1370 l 429 1432 q 408 1167 410 1265 q 722 1444 581 1308 l 1058 1288 l 662 959 l 1094 184 l 705 2 l 382 718 q 395 115 376 408 l 43 28 l 34 1370 z "},"l":{"ha":818,"x_min":38,"x_max":829,"o":"m 38 1365 l 429 1427 q 382 457 376 897 l 791 509 l 829 154 q 41 24 513 135 l 38 1365 z "},"m":{"ha":1421,"x_min":-28,"x_max":1453,"o":"m -28 53 q 250 1363 156 635 l 607 1436 l 714 746 l 810 1408 l 1150 1436 q 1453 62 1229 786 l 1075 -15 l 938 688 l 853 24 l 541 -2 l 455 731 l 340 -21 l -28 53 z "},"n":{"ha":1107,"x_min":51,"x_max":1071,"o":"m 51 1406 l 444 1472 q 476 1301 453 1410 q 598 848 538 1041 q 675 671 635 735 l 675 1408 l 1071 1472 q 1036 152 989 705 l 679 66 q 632 135 677 75 l 449 415 q 393 504 404 481 q 410 66 393 274 l 53 -21 l 51 1406 z "},"o":{"ha":1115,"x_min":-4,"x_max":1120,"o":"m 147 1188 q 583 1444 312 1444 q 970 1233 816 1444 q 1088 994 1056 1118 q 1115 722 1120 870 q 966 261 1107 472 q 530 2 799 2 q 141 218 293 2 q 30 444 68 310 q 2 722 -4 577 q 147 1188 15 979 m 720 944 q 575 1073 667 1073 q 406 912 468 1073 q 346 662 357 791 q 363 547 344 600 q 427 427 382 466 q 558 380 479 380 q 722 476 667 380 q 769 682 767 558 q 720 944 771 818 z "},"p":{"ha":998,"x_min":30,"x_max":998,"o":"m 53 682 q 30 1380 62 1267 q 575 1449 370 1462 q 880 1335 780 1436 q 996 1026 994 1231 q 923 735 998 865 q 735 553 855 628 q 402 432 596 462 q 417 38 393 295 l 38 0 q 53 682 49 188 m 391 769 q 596 846 517 771 q 667 987 656 900 q 590 1135 686 1098 q 382 1122 515 1165 l 391 769 z "},"q":{"ha":1205,"x_min":0,"x_max":1254,"o":"m 562 662 l 709 729 l 857 799 q 801 983 844 902 q 658 1090 744 1090 q 436 927 534 1090 q 340 647 357 791 q 438 391 329 483 q 694 370 551 293 l 562 662 m 1073 1248 q 1179 1006 1150 1137 q 1083 370 1254 684 q 1197 124 1111 291 l 902 -41 l 848 98 q 528 -9 688 -9 q 130 205 280 -9 q 28 449 53 314 q 17 724 0 575 q 199 1199 43 983 q 684 1466 402 1466 q 1073 1248 925 1466 z "},"r":{"ha":1030,"x_min":30,"x_max":1062,"o":"m 382 987 l 376 850 q 519 936 451 885 q 620 1088 632 1024 q 543 1139 609 1135 q 389 1120 485 1141 q 382 987 382 1049 m 615 1462 q 989 1212 940 1462 q 712 720 1013 912 q 1062 284 759 647 q 746 9 938 173 l 376 547 q 391 77 374 288 l 38 -13 q 30 1368 68 1015 q 615 1462 382 1462 z "},"s":{"ha":1085,"x_min":-17,"x_max":1107,"o":"m 985 1188 q 1006 1038 998 1122 q 840 983 955 1021 l 673 929 q 588 1017 656 1017 q 432 940 504 1017 q 404 825 385 878 q 506 791 419 791 q 615 801 551 791 q 799 818 718 818 q 1051 707 996 818 q 1081 635 1071 673 q 1019 374 1107 515 q 675 64 915 188 q 417 -2 553 -2 q 162 51 293 -2 q 280 391 194 167 q 449 344 365 344 q 526 359 485 344 q 656 402 596 372 q 729 483 737 440 q 622 534 720 534 q 436 513 558 534 q 248 485 314 485 q 111 517 160 485 q 0 671 4 564 q 226 1156 -17 878 q 703 1453 476 1440 q 985 1188 925 1464 z "},"t":{"ha":1006,"x_min":-15,"x_max":1021,"o":"m 1021 1088 q 665 1066 774 1075 q 718 62 647 833 l 301 -24 l 299 1032 q 154 1015 267 1030 q -15 996 51 1002 l 11 1361 l 959 1451 l 1021 1088 z "},"u":{"ha":1096,"x_min":-28,"x_max":1113,"o":"m 137 1421 l 534 1389 l 466 1056 l 406 720 q 391 611 406 697 q 376 485 376 534 q 515 333 376 333 q 673 402 613 333 q 724 560 724 459 l 632 1447 l 1024 1423 l 1062 951 l 1096 474 q 929 128 1113 244 q 474 6 791 43 q 66 141 179 -26 q 9 553 -28 286 l 137 1421 z "},"v":{"ha":994,"x_min":-13,"x_max":1002,"o":"m 395 1447 q 481 551 419 1143 q 573 1402 553 1113 l 1002 1368 q 699 75 829 759 l 201 4 q -13 1370 156 568 l 395 1447 z "},"w":{"ha":1404,"x_min":-28,"x_max":1436,"o":"m 1436 1370 q 1158 75 1252 797 l 771 -6 l 690 613 l 607 21 l 259 0 q -28 1314 179 643 l 350 1393 l 468 741 l 547 1436 l 861 1462 l 953 699 l 1068 1447 l 1436 1370 z "},"x":{"ha":1032,"x_min":-47,"x_max":1088,"o":"m 344 1496 l 432 1308 q 515 1120 472 1220 l 590 1286 q 671 1451 632 1374 l 1088 1423 l 701 735 q 1011 175 857 425 l 722 -26 l 504 389 l 280 -2 l -47 85 q 318 726 141 376 l 11 1306 l 344 1496 z "},"y":{"ha":1045,"x_min":-28,"x_max":1073,"o":"m 1073 1387 q 761 665 893 1009 q 547 15 630 321 l 175 34 l 335 476 l 154 878 l -28 1284 l 393 1464 q 432 1235 408 1368 q 509 959 457 1094 l 677 1438 l 1073 1387 z "},"z":{"ha":1150,"x_min":4,"x_max":1130,"o":"m 1115 1436 q 1130 1083 1120 1346 q 810 735 1047 998 q 654 564 729 656 q 511 391 549 453 l 1066 419 l 1094 64 q 79 4 476 49 l 4 361 q 321 707 83 451 l 658 1064 q 226 1015 453 1047 l 162 1378 l 1115 1436 z "},"{":{"ha":1088,"x_min":47,"x_max":991,"o":"m 47 861 q 299 848 171 850 q 419 847 359 848 q 543 847 479 846 q 672 851 607 848 q 801 863 737 855 l 797 598 q 560 585 682 590 q 452 582 511 583 q 331 581 393 581 q 206 584 269 581 q 85 592 143 588 l 47 861 m 838 900 q 639 1009 741 959 q 546 1053 592 1030 q 447 1099 500 1077 q 340 1142 393 1122 q 237 1179 286 1162 l 331 1423 q 526 1353 425 1391 q 612 1312 564 1333 q 707 1267 660 1291 q 803 1217 754 1244 q 897 1162 853 1190 l 838 900 m 276 224 q 485 314 382 265 q 582 362 532 335 q 683 415 632 389 q 786 472 733 440 q 885 534 840 504 l 991 297 q 808 190 902 246 q 722 144 769 169 q 625 94 675 120 q 521 47 575 68 q 419 4 468 26 l 276 224 z "},"}":{"ha":1088,"x_min":47,"x_max":1006,"o":"m 1006 613 q 752 628 880 624 q 637 629 699 628 q 510 629 575 630 q 379 624 444 628 q 256 611 314 620 l 263 876 q 494 889 374 885 q 607 892 549 891 q 725 893 665 893 q 849 890 786 893 q 972 880 912 887 l 1006 613 m 201 530 q 404 421 299 472 q 494 379 444 402 q 596 332 543 357 q 701 287 650 308 q 806 250 752 267 l 709 4 q 519 81 613 38 q 429 119 474 98 q 335 161 385 139 q 236 212 286 184 q 141 267 186 239 l 201 530 m 761 1209 q 553 1115 660 1162 q 459 1067 511 1094 q 357 1015 408 1041 q 253 959 306 989 q 154 895 201 929 l 47 1130 q 235 1239 137 1186 q 321 1284 274 1261 q 416 1334 368 1308 q 516 1382 464 1361 q 620 1423 568 1404 l 761 1209 z "},"~":{"ha":1058,"x_min":-28,"x_max":1124,"o":"m 391 641 l 402 459 l 145 421 l 68 771 q 375 1066 380 923 q -6 1111 370 1209 l -28 1421 q 432 1423 246 1457 q 703 1184 682 1376 q 526 741 731 940 q 391 641 472 694 m 248 -28 q 174 1 205 -19 q 124 56 143 21 q 98 127 105 90 q 103 201 92 165 q 138 275 113 244 q 198 325 162 306 q 272 355 233 344 q 357 359 312 365 q 425 324 393 346 q 479 271 457 301 q 506 204 500 241 q 502 128 513 167 q 464 56 489 90 q 405 1 438 21 q 330 -29 372 -19 q 248 -28 288 -38 m 733 -28 q 659 1 694 -19 q 604 56 624 21 q 575 127 583 90 q 577 201 566 165 q 608 275 583 244 q 667 325 632 306 q 741 355 701 344 q 823 359 782 365 q 896 324 863 346 q 951 271 929 301 q 980 204 972 241 q 979 128 987 167 q 947 56 970 90 q 890 1 923 21 q 815 -29 857 -19 q 733 -28 774 -38 m 673 472 q 678 512 675 468 q 686 626 682 556 q 697 784 690 697 q 707 966 703 872 q 737 1470 722 1186 l 1124 1412 l 925 434 q 799 455 853 449 q 750 463 771 459 q 709 469 729 466 q 682 472 690 472 q 673 472 673 472 z "},"Ş":{"ha":1051,"x_min":-113,"x_max":1011,"o":"m 889 1188 q 912 1038 902 1122 q 744 983 861 1021 l 577 929 q 494 1017 560 1017 q 335 940 408 1017 q 308 825 288 878 q 410 791 323 791 q 526 801 455 791 q 703 818 622 818 q 959 707 900 818 q 985 635 974 673 q 927 374 1011 515 q 579 64 821 188 q 321 -2 457 -2 q 66 51 197 -2 q 184 391 103 167 q 357 344 269 344 q 429 359 393 344 q 560 402 504 372 q 635 483 647 440 q 530 534 624 534 q 340 513 462 534 q 152 485 222 485 q 15 517 64 485 q -96 671 -92 564 q 130 1156 -113 878 q 607 1453 385 1440 q 889 1188 829 1464 m 504 -201 l 248 -530 l 96 -451 l 284 -118 l 504 -201 z "},"Š":{"ha":1051,"x_min":-113,"x_max":1011,"o":"m 889 1188 q 607 1453 829 1464 q 130 1156 385 1440 q -96 671 -113 878 q 15 517 -92 564 q 152 485 64 485 q 340 513 222 485 q 530 534 462 534 q 635 483 624 534 q 560 402 647 440 q 429 359 504 372 q 357 344 393 344 q 184 391 269 344 q 66 51 103 167 q 321 -2 197 -2 q 579 64 457 -2 q 927 374 821 188 q 985 635 1011 515 q 959 707 974 673 q 703 818 900 818 q 526 801 622 818 q 410 791 455 791 q 308 825 323 791 q 335 940 288 878 q 494 1017 408 1017 q 577 929 560 1017 l 744 983 q 912 1038 861 1021 q 889 1188 902 1122 m 130 1626 l 280 1776 l 483 1605 l 699 1776 l 831 1605 l 483 1331 l 130 1626 z "},"š":{"ha":1051,"x_min":-32,"x_max":1090,"o":"m 968 1188 q 686 1453 906 1464 q 207 1156 459 1440 q -17 671 -32 878 q 94 517 -13 564 q 233 485 143 485 q 419 513 297 485 q 605 534 541 534 q 712 483 703 534 q 639 402 722 440 q 509 359 579 372 q 432 344 468 344 q 263 391 344 344 q 145 51 177 167 q 402 -2 276 -2 q 658 64 536 -2 q 1002 374 895 188 q 1064 635 1090 515 q 1034 707 1051 673 q 782 818 979 818 q 600 801 701 818 q 485 791 534 791 q 387 825 404 791 q 415 940 368 878 q 573 1017 483 1017 q 656 929 639 1017 l 823 983 q 989 1038 940 1021 q 968 1188 983 1122 m 256 1665 l 404 1814 l 607 1645 l 823 1814 l 955 1645 l 607 1370 l 256 1665 z "},"Ÿ":{"ha":915,"x_min":-111,"x_max":991,"o":"m 596 1438 l 427 959 q 350 1235 380 1094 q 312 1464 325 1368 l -111 1284 l 77 878 l 259 476 l 98 34 l 464 15 q 684 665 551 321 q 991 1387 816 1009 l 596 1438 m 979 1571 q 925 1447 979 1500 q 799 1393 872 1393 q 670 1447 724 1393 q 615 1571 615 1500 q 670 1702 615 1650 q 803 1754 724 1754 q 927 1701 876 1754 q 979 1571 979 1647 m 474 1571 q 422 1447 474 1500 q 293 1393 370 1393 q 169 1447 222 1393 q 115 1571 115 1500 q 169 1702 115 1650 q 297 1754 222 1754 q 424 1701 374 1754 q 474 1571 474 1647 z "},"˛":{"ha":726,"x_min":128,"x_max":588,"o":"m 588 -459 q 515 -486 566 -472 q 410 -500 464 -500 q 304 -483 357 -500 q 213 -438 252 -466 q 151 -364 173 -410 q 128 -259 128 -318 q 147 -177 128 -216 q 197 -108 167 -139 q 261 -49 226 -77 q 329 0 295 -21 l 494 0 l 494 -4 q 389 -87 438 -32 q 340 -188 340 -141 q 374 -266 340 -237 q 453 -295 408 -295 q 521 -280 485 -295 q 588 -252 558 -265 l 588 -459 z "},"˜":{"ha":726,"x_min":-28,"x_max":756,"o":"m 756 1784 q 735 1669 748 1724 q 698 1567 722 1613 q 628 1489 673 1521 q 517 1457 583 1457 q 420 1476 466 1457 q 325 1513 374 1496 q 278 1535 299 1526 q 226 1545 256 1545 q 170 1524 188 1545 q 147 1466 152 1502 l -28 1466 q -13 1580 -24 1521 q 21 1683 -2 1639 q 88 1759 45 1726 q 197 1791 130 1791 q 285 1776 248 1791 q 358 1743 323 1761 q 424 1710 393 1724 q 489 1697 455 1697 q 556 1724 538 1697 q 577 1795 573 1752 l 756 1784 z "},"˝":{"ha":726,"x_min":-103,"x_max":829,"o":"m 829 1716 l 517 1382 l 346 1479 l 581 1827 l 829 1716 m 380 1716 l 64 1382 l -103 1479 l 130 1827 l 380 1716 z "},"Ё":{"ha":872,"x_min":9,"x_max":868,"o":"m 415 1056 q 406 947 408 1000 l 404 844 l 767 906 l 803 647 q 393 579 541 605 q 393 506 391 541 l 393 432 l 823 479 l 868 128 q 34 -2 534 107 l 17 1357 l 784 1447 l 831 1096 q 415 1056 600 1083 m 769 1607 q 699 1506 756 1549 q 564 1464 641 1464 q 444 1506 491 1464 q 408 1607 397 1549 q 474 1712 415 1669 q 609 1754 534 1754 q 731 1712 686 1754 q 769 1607 776 1669 m 380 1558 q 310 1458 370 1502 q 173 1415 250 1415 q 56 1458 103 1415 q 19 1558 9 1502 q 87 1662 26 1620 q 224 1705 147 1705 q 342 1662 297 1705 q 380 1558 387 1620 z "},"А":{"ha":1081,"x_min":-28,"x_max":1111,"o":"m -28 79 q 276 1385 173 735 l 786 1455 q 1111 111 874 874 l 722 21 l 671 261 l 417 233 l 372 -9 l -28 79 m 615 513 l 528 1021 l 442 511 l 615 513 z "},"Б":{"ha":1034,"x_min":41,"x_max":1068,"o":"m 759 906 q 1024 671 987 846 q 974 340 1068 483 q 724 135 895 218 q 385 30 573 60 q 62 30 205 6 l 60 699 q 41 1374 51 1051 l 737 1427 l 821 1090 q 385 1064 622 1081 l 385 932 q 759 906 598 951 m 389 340 q 622 421 543 359 q 677 562 699 483 q 581 635 660 613 q 391 643 511 656 l 389 340 z "},"В":{"ha":1056,"x_min":24,"x_max":1062,"o":"m 51 761 q 24 1353 28 1306 q 389 1425 186 1423 q 735 1346 598 1427 q 891 1115 878 1259 q 729 806 902 953 q 1019 596 938 780 q 1047 425 1062 513 q 964 248 1034 325 q 551 26 806 75 q 66 24 368 -4 q 51 761 75 370 m 376 335 q 543 346 474 329 q 658 451 641 376 q 577 585 682 549 q 368 583 479 622 l 376 335 m 342 889 q 547 998 509 925 q 462 1150 611 1135 q 323 1135 402 1158 l 342 889 z "},"Г":{"ha":861,"x_min":38,"x_max":874,"o":"m 417 568 q 455 85 402 795 l 261 43 l 60 0 l 47 679 l 38 1361 l 434 1406 l 827 1451 l 850 1278 l 874 1105 q 620 1081 688 1088 q 402 1058 479 1068 q 417 568 395 865 z "},"Д":{"ha":1197,"x_min":-15,"x_max":1209,"o":"m 694 312 q 603 887 660 481 q 511 306 547 556 l 694 312 m 1209 299 l 1194 145 l 1179 -6 q 600 0 889 6 q 21 -36 312 -4 l -15 265 l 124 282 q 374 1380 271 756 l 906 1449 q 1075 312 944 874 l 1209 299 z "},"Е":{"ha":910,"x_min":38,"x_max":889,"o":"m 635 1088 q 434 1064 530 1075 q 425 968 427 998 l 419 874 l 579 897 l 737 927 l 752 795 l 771 660 q 566 628 613 635 q 419 603 483 613 l 415 425 l 630 455 l 844 485 l 868 310 l 889 135 q 515 92 722 124 q 53 2 306 56 q 49 340 51 118 l 45 684 q 38 1363 41 1132 l 421 1408 l 806 1453 l 829 1280 l 853 1105 q 635 1088 737 1096 z "},"Ж":{"ha":1613,"x_min":-77,"x_max":1673,"o":"m 1019 1387 q 996 1064 1006 1267 q 1085 1162 1026 1088 q 1165 1267 1141 1246 q 1308 1400 1096 1207 l 1635 1246 l 1248 855 l 1673 175 l 1288 0 l 979 607 l 964 220 q 970 32 959 120 l 600 -24 l 613 588 l 299 17 l -77 190 l 376 872 l 0 1265 l 329 1415 q 474 1246 370 1380 q 628 1083 568 1128 l 639 1524 l 1019 1387 z "},"З":{"ha":983,"x_min":-30,"x_max":989,"o":"m 848 974 q 694 818 801 887 q 979 511 989 771 q 793 130 970 286 q 385 11 605 -26 q 145 122 248 34 q -30 372 38 212 l 329 481 q 425 382 372 406 q 511 382 468 361 q 564 532 585 427 q 438 622 543 624 q 235 609 374 622 l 252 735 l 274 861 q 438 917 350 865 q 526 1049 543 979 q 491 1094 517 1081 q 427 1107 466 1109 q 316 1066 389 1107 q 150 949 250 1024 l 62 1096 l -26 1246 q 515 1451 216 1444 q 756 1389 665 1453 q 880 1167 865 1314 q 848 974 893 1066 z "},"И":{"ha":1096,"x_min":24,"x_max":1062,"o":"m 457 1429 q 397 1030 417 1231 q 393 622 380 833 q 549 1081 444 840 q 677 1378 650 1314 l 1062 1432 q 1036 729 1030 1068 q 1058 122 1045 389 l 726 45 q 690 737 705 404 q 553 436 622 607 q 464 122 481 263 q 252 77 425 115 q 79 28 150 51 q 51 703 53 376 q 24 1365 49 1030 l 457 1429 z "},"Й":{"ha":1135,"x_min":24,"x_max":1098,"o":"m 970 1423 l 468 1291 l 434 1489 l 825 1652 l 970 1423 m 1083 51 q 1085 718 1071 387 q 1096 1389 1098 1047 q 915 1344 1015 1365 q 701 1295 966 1357 q 596 985 677 1158 q 427 632 519 806 q 382 1361 427 1015 l 24 1282 q 75 673 60 1013 q 43 -15 85 329 l 425 41 q 573 338 457 103 q 750 750 686 579 q 722 389 750 585 q 641 -13 694 186 l 1083 51 z "},"К":{"ha":1030,"x_min":34,"x_max":1094,"o":"m 34 1370 l 429 1432 q 408 1167 410 1265 q 722 1444 581 1308 l 1058 1288 l 662 959 l 1094 184 l 705 2 l 382 718 q 395 115 376 408 l 43 28 l 34 1370 z "},"Л":{"ha":996,"x_min":-26,"x_max":1017,"o":"m 596 -26 q 509 885 573 280 q 415 21 436 312 l -26 53 q 286 1370 152 673 l 799 1436 q 1017 51 842 865 l 596 -26 z "},"М":{"ha":1421,"x_min":-28,"x_max":1453,"o":"m -28 53 q 250 1363 156 635 l 607 1436 l 714 746 l 810 1408 l 1150 1436 q 1453 62 1229 786 l 1075 -15 l 938 688 l 853 24 l 541 -2 l 455 731 l 340 -21 l -28 53 z "},"Н":{"ha":1049,"x_min":30,"x_max":1017,"o":"m 453 1432 q 408 786 415 1056 l 596 818 l 592 1370 l 1017 1432 q 991 90 942 641 l 598 0 l 596 530 q 404 494 532 517 q 427 90 410 256 l 38 0 l 30 1370 l 453 1432 z "},"О":{"ha":1115,"x_min":-4,"x_max":1120,"o":"m 147 1188 q 583 1444 312 1444 q 970 1233 816 1444 q 1088 994 1056 1118 q 1115 722 1120 870 q 966 261 1107 472 q 530 2 799 2 q 141 218 293 2 q 30 444 68 310 q 2 722 -4 577 q 147 1188 15 979 m 720 944 q 575 1073 667 1073 q 406 912 468 1073 q 346 662 357 791 q 363 547 344 600 q 427 427 382 466 q 558 380 479 380 q 722 476 667 380 q 769 682 767 558 q 720 944 771 818 z "},"П":{"ha":996,"x_min":32,"x_max":968,"o":"m 41 1310 q 951 1438 947 1438 q 968 60 942 1353 l 588 6 l 592 1088 q 427 1066 534 1081 q 432 66 395 609 l 51 -15 q 45 650 60 194 q 41 1310 32 1085 z "},"Р":{"ha":998,"x_min":30,"x_max":998,"o":"m 53 682 q 30 1380 62 1267 q 575 1449 370 1462 q 880 1335 780 1436 q 996 1026 994 1231 q 923 735 998 865 q 735 553 855 628 q 402 432 596 462 q 417 38 393 295 l 38 0 q 53 682 49 188 m 391 769 q 596 846 517 771 q 667 987 656 900 q 590 1135 686 1098 q 382 1122 515 1165 l 391 769 z "},"С":{"ha":912,"x_min":-4,"x_max":936,"o":"m 83 346 q -2 741 -4 534 q 77 1107 2 938 q 276 1374 152 1280 q 573 1451 412 1474 q 936 1254 750 1427 l 838 1124 l 737 994 q 440 1011 553 1118 q 346 726 342 921 q 453 449 357 536 q 744 474 566 342 l 929 237 q 607 9 784 43 q 306 79 453 -21 q 83 346 167 171 z "},"Т":{"ha":1006,"x_min":-15,"x_max":1021,"o":"m 1021 1088 q 665 1066 774 1075 q 718 62 647 833 l 301 -24 l 299 1032 q 154 1015 267 1030 q -15 996 51 1002 l 11 1361 l 959 1451 l 1021 1088 z "},"У":{"ha":1045,"x_min":-28,"x_max":1073,"o":"m 1073 1387 q 761 665 893 1009 q 547 15 630 321 l 175 34 l 335 476 l 154 878 l -28 1284 l 393 1464 q 432 1235 408 1368 q 509 959 457 1094 l 677 1438 l 1073 1387 z "},"Ф":{"ha":1618,"x_min":-41,"x_max":1628,"o":"m 412 831 q 365 583 342 724 q 457 440 380 494 q 624 406 528 397 q 630 1006 641 641 q 412 831 479 940 m 1179 611 q 1224 863 1246 720 q 1150 976 1216 936 q 983 1030 1090 1021 q 972 440 951 639 q 1179 611 1118 513 m 1024 1361 q 1438 1169 1280 1314 q 1607 774 1628 1009 q 1412 363 1590 538 q 1017 130 1259 207 l 1024 15 l 600 -66 l 609 77 q 226 184 370 85 q 9 541 60 297 q 152 1045 -41 793 q 607 1357 338 1288 l 600 1528 l 1030 1436 l 1024 1361 z "},"Х":{"ha":1032,"x_min":-47,"x_max":1088,"o":"m 344 1496 l 432 1308 q 515 1120 472 1220 l 590 1286 q 671 1451 632 1374 l 1088 1423 l 701 735 q 1011 175 857 425 l 722 -26 l 504 389 l 280 -2 l -47 85 q 318 726 141 376 l 11 1306 l 344 1496 z "},"Ц":{"ha":1162,"x_min":30,"x_max":1244,"o":"m 239 1425 l 440 1457 q 404 955 402 1306 q 438 359 406 635 l 536 359 q 635 361 581 361 l 632 936 q 620 1406 630 1293 l 810 1434 l 1000 1462 q 979 925 983 1214 q 989 387 979 697 q 1244 412 1107 395 l 1154 156 l 1085 -152 l 923 -118 l 756 -79 l 782 -4 l 803 66 q 395 34 464 43 q 90 6 171 19 q 66 701 66 731 q 30 1393 53 1098 l 239 1425 z "},"Ч":{"ha":996,"x_min":-9,"x_max":966,"o":"m 966 1449 q 900 791 925 1165 q 900 90 876 350 l 547 2 l 560 491 q 222 489 329 442 q 60 688 122 534 q 24 818 34 746 q 9 972 11 889 q 4 1143 9 1056 q -9 1327 0 1233 l 197 1380 l 408 1432 q 385 1222 402 1350 q 372 987 365 1096 q 419 818 376 876 q 566 810 459 756 l 566 1389 l 966 1449 z "},"Ш":{"ha":1472,"x_min":38,"x_max":1432,"o":"m 440 1402 q 393 284 368 741 l 553 297 l 547 844 q 538 1389 541 1222 l 938 1438 q 910 318 872 795 l 1085 335 l 1056 1402 l 1432 1470 q 1402 780 1406 1122 q 1425 83 1397 440 l 38 -2 l 45 1355 l 440 1402 z "},"Щ":{"ha":1609,"x_min":-239,"x_max":1650,"o":"m 451 1406 q 402 288 374 746 l 560 301 l 556 1406 l 953 1455 q 915 323 885 782 q 1092 344 998 331 l 1068 1376 l 1444 1440 q 1410 784 1415 1088 q 1412 402 1406 592 q 1650 434 1553 421 q 1466 -169 1532 111 l 1143 -96 l 1192 75 q 43 2 -239 -15 l 56 1359 l 451 1406 z "},"Ъ":{"ha":1143,"x_min":-26,"x_max":1158,"o":"m 244 1122 l -26 1105 l 81 1436 l 598 1391 q 581 1034 579 1254 q 906 974 769 1036 q 1088 825 1021 923 q 1147 549 1158 709 q 1021 220 1139 342 q 707 47 912 100 q 194 17 491 -2 q 244 1122 237 323 m 517 363 q 731 395 639 340 q 816 558 829 451 q 750 694 803 654 q 543 724 682 746 l 517 363 z "},"Ы":{"ha":1440,"x_min":30,"x_max":1410,"o":"m 77 701 q 62 1357 79 962 l 417 1425 q 410 1030 402 1246 q 735 970 596 1032 q 923 821 855 917 q 996 543 1000 705 q 880 216 994 338 q 575 43 780 94 q 30 15 370 -6 q 77 701 75 244 m 382 333 q 590 363 515 314 q 667 526 686 415 q 596 652 656 605 q 391 690 517 709 l 382 333 m 1017 1335 l 1019 -4 l 1380 81 q 1410 1400 1333 635 l 1017 1335 z "},"Ь":{"ha":996,"x_min":30,"x_max":1000,"o":"m 77 709 q 62 1365 79 970 l 417 1434 q 410 1038 402 1256 q 735 979 596 1041 q 923 829 855 927 q 996 553 1000 714 q 880 224 994 346 q 575 51 780 103 q 30 24 370 2 q 77 709 75 252 m 382 342 q 590 372 515 323 q 667 534 686 425 q 596 660 656 613 q 391 701 517 720 l 382 342 z "},"Э":{"ha":942,"x_min":24,"x_max":955,"o":"m 34 1160 q 24 1389 24 1355 q 556 1406 314 1476 q 936 923 900 1303 q 840 451 955 679 q 673 220 774 316 q 436 60 564 115 q 64 32 259 -9 l 66 408 q 372 440 239 382 q 564 641 506 504 l 167 605 l 169 917 l 605 927 q 417 1105 592 1085 q 216 1092 333 1113 q 38 1056 171 1085 l 34 1160 z "},"Ю":{"ha":1526,"x_min":24,"x_max":1528,"o":"m 592 1188 q 1013 1444 752 1444 q 1382 1233 1233 1444 q 1496 994 1462 1118 q 1521 722 1528 870 q 1378 261 1511 472 q 962 2 1218 2 q 585 218 733 2 q 483 444 524 310 q 462 547 468 494 q 363 538 412 543 q 372 90 357 297 l 24 19 q 90 1393 38 829 l 449 1331 q 380 806 402 1056 l 462 810 q 592 1188 489 1015 m 1141 944 q 1002 1073 1092 1073 q 842 912 902 1073 q 791 662 793 791 q 799 547 786 600 q 861 427 818 466 q 987 380 915 380 q 1143 476 1092 380 q 1190 682 1188 558 q 1141 944 1192 818 z "},"Я":{"ha":1064,"x_min":-38,"x_max":1030,"o":"m 682 1049 q 474 959 536 1013 q 438 827 415 900 q 673 733 457 729 l 682 1049 m 1013 0 l 641 24 q 660 406 665 229 l 609 404 q 286 -98 462 135 q 98 26 184 -24 q -36 115 11 77 q 297 519 173 312 q 98 677 167 568 q 130 1094 -38 887 q 491 1333 250 1241 q 1030 1451 718 1421 q 1013 0 996 893 z "},"а":{"ha":1081,"x_min":-28,"x_max":1111,"o":"m -28 79 q 276 1385 173 735 l 786 1455 q 1111 111 874 874 l 722 21 l 671 261 l 417 233 l 372 -9 l -28 79 m 615 513 l 528 1021 l 442 511 l 615 513 z "},"б":{"ha":1034,"x_min":41,"x_max":1068,"o":"m 759 906 q 1024 671 987 846 q 974 340 1068 483 q 724 135 895 218 q 385 30 573 60 q 62 30 205 6 l 60 699 q 41 1374 51 1051 l 737 1427 l 821 1090 q 385 1064 622 1081 l 385 932 q 759 906 598 951 m 389 340 q 622 421 543 359 q 677 562 699 483 q 581 635 660 613 q 391 643 511 656 l 389 340 z "},"в":{"ha":1056,"x_min":24,"x_max":1062,"o":"m 51 761 q 24 1353 28 1306 q 389 1425 186 1423 q 735 1346 598 1427 q 891 1115 878 1259 q 729 806 902 953 q 1019 596 938 780 q 1047 425 1062 513 q 964 248 1034 325 q 551 26 806 75 q 66 24 368 -4 q 51 761 75 370 m 376 335 q 543 346 474 329 q 658 451 641 376 q 577 585 682 549 q 368 583 479 622 l 376 335 m 342 889 q 547 998 509 925 q 462 1150 611 1135 q 323 1135 402 1158 l 342 889 z "},"г":{"ha":861,"x_min":38,"x_max":874,"o":"m 417 568 q 455 85 402 795 l 261 43 l 60 0 l 47 679 l 38 1361 l 434 1406 l 827 1451 l 850 1278 l 874 1105 q 620 1081 688 1088 q 402 1058 479 1068 q 417 568 395 865 z "},"д":{"ha":1197,"x_min":-15,"x_max":1209,"o":"m 694 312 q 603 887 660 481 q 511 306 547 556 l 694 312 m 1209 299 l 1194 145 l 1179 -6 q 600 0 889 6 q 21 -36 312 -4 l -15 265 l 124 282 q 374 1380 271 756 l 906 1449 q 1075 312 944 874 l 1209 299 z "},"е":{"ha":910,"x_min":38,"x_max":889,"o":"m 635 1088 q 434 1064 530 1075 q 425 968 427 998 l 419 874 l 579 897 l 737 927 l 752 795 l 771 660 q 566 628 613 635 q 419 603 483 613 l 415 425 l 630 455 l 844 485 l 868 310 l 889 135 q 515 92 722 124 q 53 2 306 56 q 49 340 51 118 l 45 684 q 38 1363 41 1132 l 421 1408 l 806 1453 l 829 1280 l 853 1105 q 635 1088 737 1096 z "},"ж":{"ha":1613,"x_min":-77,"x_max":1673,"o":"m 1019 1387 q 996 1064 1006 1267 q 1085 1162 1026 1088 q 1165 1267 1141 1246 q 1308 1400 1096 1207 l 1635 1246 l 1248 855 l 1673 175 l 1288 0 l 979 607 l 964 220 q 970 32 959 120 l 600 -24 l 613 588 l 299 17 l -77 190 l 376 872 l 0 1265 l 329 1415 q 474 1246 370 1380 q 628 1083 568 1128 l 639 1524 l 1019 1387 z "},"з":{"ha":983,"x_min":-30,"x_max":989,"o":"m 848 974 q 694 818 801 887 q 979 511 989 771 q 793 130 970 286 q 385 11 605 -26 q 145 122 248 34 q -30 372 38 212 l 329 481 q 425 382 372 406 q 511 382 468 361 q 564 532 585 427 q 438 622 543 624 q 235 609 374 622 l 252 735 l 274 861 q 438 917 350 865 q 526 1049 543 979 q 491 1094 517 1081 q 427 1107 466 1109 q 316 1066 389 1107 q 150 949 250 1024 l 62 1096 l -26 1246 q 515 1451 216 1444 q 756 1389 665 1453 q 880 1167 865 1314 q 848 974 893 1066 z "},"и":{"ha":1096,"x_min":24,"x_max":1062,"o":"m 457 1429 q 397 1030 417 1231 q 393 622 380 833 q 549 1081 444 840 q 677 1378 650 1314 l 1062 1432 q 1036 729 1030 1068 q 1058 122 1045 389 l 726 45 q 690 737 705 404 q 553 436 622 607 q 464 122 481 263 q 252 77 425 115 q 79 28 150 51 q 51 703 53 376 q 24 1365 49 1030 l 457 1429 z "},"й":{"ha":1135,"x_min":24,"x_max":1098,"o":"m 970 1423 l 468 1291 l 434 1489 l 825 1652 l 970 1423 m 1083 51 q 1085 718 1071 387 q 1096 1389 1098 1047 q 915 1344 1015 1365 q 701 1295 966 1357 q 596 985 677 1158 q 427 632 519 806 q 382 1361 427 1015 l 24 1282 q 75 673 60 1013 q 43 -15 85 329 l 425 41 q 573 338 457 103 q 750 750 686 579 q 722 389 750 585 q 641 -13 694 186 l 1083 51 z "},"к":{"ha":1030,"x_min":34,"x_max":1094,"o":"m 34 1370 l 429 1432 q 408 1167 410 1265 q 722 1444 581 1308 l 1058 1288 l 662 959 l 1094 184 l 705 2 l 382 718 q 395 115 376 408 l 43 28 l 34 1370 z "},"л":{"ha":996,"x_min":-26,"x_max":1017,"o":"m 596 -26 q 509 885 573 280 q 415 21 436 312 l -26 53 q 286 1370 152 673 l 799 1436 q 1017 51 842 865 l 596 -26 z "},"м":{"ha":1421,"x_min":-28,"x_max":1453,"o":"m -28 53 q 250 1363 156 635 l 607 1436 l 714 746 l 810 1408 l 1150 1436 q 1453 62 1229 786 l 1075 -15 l 938 688 l 853 24 l 541 -2 l 455 731 l 340 -21 l -28 53 z "},"н":{"ha":1049,"x_min":30,"x_max":1017,"o":"m 453 1432 q 408 786 415 1056 l 596 818 l 592 1370 l 1017 1432 q 991 90 942 641 l 598 0 l 596 530 q 404 494 532 517 q 427 90 410 256 l 38 0 l 30 1370 l 453 1432 z "},"о":{"ha":1115,"x_min":-4,"x_max":1120,"o":"m 147 1188 q 583 1444 312 1444 q 970 1233 816 1444 q 1088 994 1056 1118 q 1115 722 1120 870 q 966 261 1107 472 q 530 2 799 2 q 141 218 293 2 q 30 444 68 310 q 2 722 -4 577 q 147 1188 15 979 m 720 944 q 575 1073 667 1073 q 406 912 468 1073 q 346 662 357 791 q 363 547 344 600 q 427 427 382 466 q 558 380 479 380 q 722 476 667 380 q 769 682 767 558 q 720 944 771 818 z "},"п":{"ha":996,"x_min":32,"x_max":968,"o":"m 41 1310 q 951 1438 947 1438 q 968 60 942 1353 l 588 6 l 592 1088 q 427 1066 534 1081 q 432 66 395 609 l 51 -15 q 45 650 60 194 q 41 1310 32 1085 z "},"р":{"ha":998,"x_min":30,"x_max":998,"o":"m 53 682 q 30 1380 62 1267 q 575 1449 370 1462 q 880 1335 780 1436 q 996 1026 994 1231 q 923 735 998 865 q 735 553 855 628 q 402 432 596 462 q 417 38 393 295 l 38 0 q 53 682 49 188 m 391 769 q 596 846 517 771 q 667 987 656 900 q 590 1135 686 1098 q 382 1122 515 1165 l 391 769 z "},"с":{"ha":912,"x_min":-4,"x_max":936,"o":"m 83 346 q -2 741 -4 534 q 77 1107 2 938 q 276 1374 152 1280 q 573 1451 412 1474 q 936 1254 750 1427 l 838 1124 l 737 994 q 440 1011 553 1118 q 346 726 342 921 q 453 449 357 536 q 744 474 566 342 l 929 237 q 607 9 784 43 q 306 79 453 -21 q 83 346 167 171 z "},"т":{"ha":1006,"x_min":-15,"x_max":1021,"o":"m 1021 1088 q 665 1066 774 1075 q 718 62 647 833 l 301 -24 l 299 1032 q 154 1015 267 1030 q -15 996 51 1002 l 11 1361 l 959 1451 l 1021 1088 z "},"у":{"ha":1045,"x_min":-28,"x_max":1073,"o":"m 1073 1387 q 761 665 893 1009 q 547 15 630 321 l 175 34 l 335 476 l 154 878 l -28 1284 l 393 1464 q 432 1235 408 1368 q 509 959 457 1094 l 677 1438 l 1073 1387 z "},"ф":{"ha":1618,"x_min":-41,"x_max":1628,"o":"m 412 831 q 365 583 342 724 q 457 440 380 494 q 624 406 528 397 q 630 1006 641 641 q 412 831 479 940 m 1179 611 q 1224 863 1246 720 q 1150 976 1216 936 q 983 1030 1090 1021 q 972 440 951 639 q 1179 611 1118 513 m 1024 1361 q 1438 1169 1280 1314 q 1607 774 1628 1009 q 1412 363 1590 538 q 1017 130 1259 207 l 1024 15 l 600 -66 l 609 77 q 226 184 370 85 q 9 541 60 297 q 152 1045 -41 793 q 607 1357 338 1288 l 600 1528 l 1030 1436 l 1024 1361 z "},"х":{"ha":1032,"x_min":-47,"x_max":1088,"o":"m 344 1496 l 432 1308 q 515 1120 472 1220 l 590 1286 q 671 1451 632 1374 l 1088 1423 l 701 735 q 1011 175 857 425 l 722 -26 l 504 389 l 280 -2 l -47 85 q 318 726 141 376 l 11 1306 l 344 1496 z "},"ц":{"ha":1162,"x_min":30,"x_max":1244,"o":"m 239 1425 l 440 1457 q 404 955 402 1306 q 438 359 406 635 l 536 359 q 635 361 581 361 l 632 936 q 620 1406 630 1293 l 810 1434 l 1000 1462 q 979 925 983 1214 q 989 387 979 697 q 1244 412 1107 395 l 1154 156 l 1085 -152 l 923 -118 l 756 -79 l 782 -4 l 803 66 q 395 34 464 43 q 90 6 171 19 q 66 701 66 731 q 30 1393 53 1098 l 239 1425 z "},"ч":{"ha":996,"x_min":-9,"x_max":966,"o":"m 966 1449 q 900 791 925 1165 q 900 90 876 350 l 547 2 l 560 491 q 222 489 329 442 q 60 688 122 534 q 24 818 34 746 q 9 972 11 889 q 4 1143 9 1056 q -9 1327 0 1233 l 197 1380 l 408 1432 q 385 1222 402 1350 q 372 987 365 1096 q 419 818 376 876 q 566 810 459 756 l 566 1389 l 966 1449 z "},"ш":{"ha":1472,"x_min":38,"x_max":1432,"o":"m 440 1402 q 393 284 368 741 l 553 297 l 547 844 q 538 1389 541 1222 l 938 1438 q 910 318 872 795 l 1085 335 l 1056 1402 l 1432 1470 q 1402 780 1406 1122 q 1425 83 1397 440 l 38 -2 l 45 1355 l 440 1402 z "},"щ":{"ha":1609,"x_min":-239,"x_max":1650,"o":"m 451 1406 q 402 288 374 746 l 560 301 l 556 1406 l 953 1455 q 915 323 885 782 q 1092 344 998 331 l 1068 1376 l 1444 1440 q 1410 784 1415 1088 q 1412 402 1406 592 q 1650 434 1553 421 q 1466 -169 1532 111 l 1143 -96 l 1192 75 q 43 2 -239 -15 l 56 1359 l 451 1406 z "},"ъ":{"ha":1143,"x_min":-26,"x_max":1158,"o":"m 244 1122 l -26 1105 l 81 1436 l 598 1391 q 581 1034 579 1254 q 906 974 769 1036 q 1088 825 1021 923 q 1147 549 1158 709 q 1021 220 1139 342 q 707 47 912 100 q 194 17 491 -2 q 244 1122 237 323 m 517 363 q 731 395 639 340 q 816 558 829 451 q 750 694 803 654 q 543 724 682 746 l 517 363 z "},"ы":{"ha":1440,"x_min":30,"x_max":1410,"o":"m 77 701 q 62 1357 79 962 l 417 1425 q 410 1030 402 1246 q 735 970 596 1032 q 923 821 855 917 q 996 543 1000 705 q 880 216 994 338 q 575 43 780 94 q 30 15 370 -6 q 77 701 75 244 m 382 333 q 590 363 515 314 q 667 526 686 415 q 596 652 656 605 q 391 690 517 709 l 382 333 m 1017 1335 l 1019 -4 l 1380 81 q 1410 1400 1333 635 l 1017 1335 z "},"ь":{"ha":996,"x_min":30,"x_max":1000,"o":"m 77 709 q 62 1365 79 970 l 417 1434 q 410 1038 402 1256 q 735 979 596 1041 q 923 829 855 927 q 996 553 1000 714 q 880 224 994 346 q 575 51 780 103 q 30 24 370 2 q 77 709 75 252 m 382 342 q 590 372 515 323 q 667 534 686 425 q 596 660 656 613 q 391 701 517 720 l 382 342 z "},"э":{"ha":942,"x_min":24,"x_max":955,"o":"m 34 1160 q 24 1389 24 1355 q 556 1406 314 1476 q 936 923 900 1303 q 840 451 955 679 q 673 220 774 316 q 436 60 564 115 q 64 32 259 -9 l 66 408 q 372 440 239 382 q 564 641 506 504 l 167 605 l 169 917 l 605 927 q 417 1105 592 1085 q 216 1092 333 1113 q 38 1056 171 1085 l 34 1160 z "},"ю":{"ha":1526,"x_min":24,"x_max":1528,"o":"m 592 1188 q 1013 1444 752 1444 q 1382 1233 1233 1444 q 1496 994 1462 1118 q 1521 722 1528 870 q 1378 261 1511 472 q 962 2 1218 2 q 585 218 733 2 q 483 444 524 310 q 462 547 468 494 q 363 538 412 543 q 372 90 357 297 l 24 19 q 90 1393 38 829 l 449 1331 q 380 806 402 1056 l 462 810 q 592 1188 489 1015 m 1141 944 q 1002 1073 1092 1073 q 842 912 902 1073 q 791 662 793 791 q 799 547 786 600 q 861 427 818 466 q 987 380 915 380 q 1143 476 1092 380 q 1190 682 1188 558 q 1141 944 1192 818 z "},"я":{"ha":1064,"x_min":-38,"x_max":1030,"o":"m 682 1049 q 474 959 536 1013 q 438 827 415 900 q 673 733 457 729 l 682 1049 m 1013 0 l 641 24 q 660 406 665 229 l 609 404 q 286 -98 462 135 q 98 26 184 -24 q -36 115 11 77 q 297 519 173 312 q 98 677 167 568 q 130 1094 -38 887 q 491 1333 250 1241 q 1030 1451 718 1421 q 1013 0 996 893 z "},"–":{"ha":1214,"x_min":0,"x_max":1214,"o":"m 1214 964 l 1214 641 l 0 641 l 0 964 l 1214 964 z "},"—":{"ha":2423,"x_min":314,"x_max":2109,"o":"m 2109 964 l 2109 641 l 314 641 l 314 964 l 2109 964 z "},"‚":{"ha":733,"x_min":62,"x_max":673,"o":"m 673 393 l 306 -348 l 62 -348 l 306 393 l 673 393 z "},"“":{"ha":709,"x_min":17,"x_max":712,"o":"m 248 1491 q 425 970 316 1177 l 233 801 l 17 1327 l 248 1491 m 583 1590 q 712 1062 624 1271 l 504 915 l 333 1453 l 583 1590 z "},"”":{"ha":677,"x_min":-17,"x_max":667,"o":"m 667 1327 l 444 823 l 263 991 q 442 1498 370 1190 l 667 1327 m 361 1462 l 184 940 l -17 1083 q 122 1596 75 1288 l 361 1462 z "},"„":{"ha":1190,"x_min":62,"x_max":1128,"o":"m 1128 393 l 761 -348 l 524 -348 l 761 393 l 1128 393 m 671 393 l 306 -348 l 62 -348 l 306 393 l 671 393 z "},"•":{"ha":1017,"x_min":49,"x_max":966,"o":"m 509 1357 q 685 1321 600 1357 q 830 1222 769 1284 q 928 1078 891 1160 q 966 900 966 996 q 928 723 966 808 q 830 577 891 639 q 685 478 769 515 q 509 440 600 440 q 329 478 412 440 q 184 577 246 515 q 85 723 122 639 q 49 900 49 808 q 85 1078 49 996 q 184 1222 122 1160 q 329 1321 246 1284 q 509 1357 412 1357 z "},"…":{"ha":1652,"x_min":81,"x_max":1583,"o":"m 829 -28 q 739 -11 782 -28 q 666 37 697 6 q 616 110 635 68 q 598 199 598 152 q 616 290 598 248 q 666 363 635 331 q 739 413 697 395 q 829 432 782 432 q 920 413 876 432 q 993 363 964 395 q 1042 290 1021 331 q 1062 199 1062 248 q 1042 110 1062 152 q 993 37 1021 68 q 920 -11 964 6 q 829 -28 876 -28 m 1357 -28 q 1264 -11 1306 -28 q 1191 37 1222 6 q 1142 110 1160 68 q 1124 199 1124 152 q 1142 290 1124 248 q 1191 363 1160 331 q 1264 413 1222 395 q 1357 432 1306 432 q 1447 413 1404 432 q 1519 363 1489 395 q 1566 290 1549 331 q 1583 199 1583 248 q 1566 110 1583 152 q 1519 37 1549 68 q 1447 -11 1489 6 q 1357 -28 1404 -28 m 310 -28 q 219 -11 263 -28 q 146 37 175 6 q 99 110 118 68 q 81 199 81 152 q 99 290 81 248 q 146 363 118 331 q 219 413 175 395 q 310 432 263 432 q 402 413 361 432 q 474 363 442 395 q 524 290 506 331 q 541 199 541 248 q 524 110 541 152 q 474 37 506 68 q 402 -11 442 6 q 310 -28 361 -28 z "},"‹":{"ha":630,"x_min":62,"x_max":564,"o":"m 380 1368 l 564 1263 l 314 806 l 564 331 l 380 239 l 62 806 l 380 1368 z "},"›":{"ha":630,"x_min":64,"x_max":566,"o":"m 566 806 l 252 239 l 64 331 l 314 806 l 64 1263 l 252 1368 l 566 806 z "},"⁄":{"ha":1030,"x_min":-15,"x_max":1034,"o":"m 1034 1502 q 905 1228 972 1368 q 769 953 838 1088 q 634 690 701 818 q 509 453 566 562 q 233 -51 368 188 l -15 85 q 138 359 60 218 q 290 640 216 500 q 433 915 363 780 q 562 1169 502 1049 q 838 1733 705 1455 l 1034 1502 z "},"€":{"ha":1188,"x_min":60,"x_max":1165,"o":"m 1034 686 l 575 686 q 639 542 598 609 q 736 423 679 474 q 864 341 793 372 q 1019 310 936 310 q 1130 323 1075 310 l 1130 -2 q 998 -19 1071 -19 q 708 37 840 -19 q 476 190 577 94 q 310 415 376 286 q 212 686 244 543 l 60 686 l 81 846 l 186 846 q 184 885 184 865 q 184 929 184 906 l 184 970 l 60 970 l 81 1130 l 201 1130 q 302 1400 235 1269 q 469 1627 370 1530 q 699 1783 568 1724 q 985 1842 829 1842 q 1073 1838 1032 1842 q 1165 1821 1113 1833 l 1130 1502 q 1021 1513 1075 1513 q 853 1482 929 1513 q 719 1401 776 1451 q 623 1280 662 1350 q 562 1130 583 1209 l 1090 1130 l 1071 970 l 536 970 l 536 932 q 536 887 536 910 q 541 846 536 868 l 1056 846 l 1034 686 z "},"−":{"ha":1188,"x_min":49,"x_max":1139,"o":"m 49 752 l 1139 752 l 1139 485 l 49 485 l 49 752 z "},"á":{"ha":1081,"x_min":-28,"x_max":1111,"o":"m -28 79 q 276 1385 173 735 l 786 1455 q 1111 111 874 874 l 722 21 l 671 261 l 417 233 l 372 -9 l -28 79 m 615 513 l 528 1021 l 442 511 l 615 513 m 592 1756 q 688 1729 677 1741 q 759 1667 726 1722 l 765 1635 q 675 1494 765 1553 q 556 1447 609 1451 q 462 1434 556 1438 l 457 1434 q 331 1459 374 1434 q 261 1513 282 1479 l 250 1541 l 250 1588 q 288 1656 263 1628 q 374 1720 299 1673 q 506 1756 432 1748 l 592 1756 m 449 1581 q 479 1553 449 1560 l 487 1551 l 513 1551 q 575 1575 541 1551 l 583 1598 l 583 1605 q 543 1628 583 1622 l 513 1628 q 464 1607 464 1620 q 449 1581 449 1607 z "},"ô":{"ha":1115,"x_min":-124,"x_max":1122,"o":"m 45 1188 q 528 1444 226 1444 q 955 1233 784 1444 q 1085 994 1049 1118 q 1115 722 1122 870 q 951 261 1107 472 q 468 2 765 2 q 36 218 205 2 q -85 444 -43 310 q -118 722 -124 577 q 45 1188 -103 979 m 724 947 q 526 1079 652 1079 q 297 912 380 1079 q 216 652 231 786 q 239 532 212 588 q 325 408 265 449 q 502 359 395 359 q 726 459 652 359 q 791 673 786 543 q 724 947 793 814 m 778 1496 l 1060 1402 q 293 -60 592 632 l 19 -4 l 778 1496 z "}}}
